<svg version="1.1" xmlns="http://www.w3.org/2000/svg" style="display: block;" viewBox="0 0 2048 2036" width="1166" height="1159" preserveAspectRatio="none">
<path transform="translate(0,0)" fill="rgb(255,168,144)" d="M 0 0 L 2048 0 L 2048 2036 L 0 2036 L 0 0 z"/>
<path transform="translate(0,0)" fill="rgb(247,247,247)" d="M 1489.22 337.11 C 1593.03 338.369 1698.72 336.769 1802.81 336.98 C 1759.14 416.736 1710.79 497.703 1664.99 576.352 L 1439.95 961.715 L 1026.27 1679.91 C 1004.17 1718.66 981.72 1757.22 958.929 1795.57 L 824.892 1548.47 C 838.381 1520.7 859.808 1486.18 875.134 1458.05 L 1017.75 1198.91 L 1489.22 337.11 z"/>
<path transform="translate(0,0)" fill="rgb(247,247,247)" d="M 221.868 400.282 C 249.362 399.285 281.89 399.985 309.874 400.006 L 465.473 400.058 L 932.711 400.089 C 861.813 494.72 793.748 593.208 723.253 688.489 C 744.84 729.138 771.382 773.331 794.647 813.534 C 837.009 886.928 880.154 959.867 924.073 1032.34 L 895.067 1084.54 L 763.178 1322.95 C 741.817 1290.05 716.202 1244 696.059 1209.33 L 583.353 1015.55 L 221.868 400.282 z"/>
</svg>