<svg width="1200" height="630" viewBox="0 0 1200 630" fill="none" xmlns="http://www.w3.org/2000/svg">
  <!-- Background -->
  <rect width="1200" height="630" fill="#FBF1E3"/>
  
  <!-- Decorative Elements -->
  <rect x="50" y="50" width="500" height="530" fill="#15181F"/>
  <rect x="40" y="40" width="500" height="530" fill="#FFFFFF" stroke="#15181F" stroke-width="8"/>
  
  <!-- Large V Logo -->
  <path d="M 120 150 L 240 450 L 280 320 L 320 450 L 440 150 L 400 150 L 280 380 L 160 150 Z" 
        fill="#15181F"/>
  
  <!-- Brackets -->
  <path d="M 80 280 L 70 280 L 70 350 L 80 350" 
        stroke="#9BD8F4" stroke-width="12" stroke-linecap="round" fill="none"/>
  <path d="M 500 280 L 510 280 L 510 350 L 500 350" 
        stroke="#9BD8F4" stroke-width="12" stroke-linecap="round" fill="none"/>
  
  <!-- Text Content -->
  <text x="620" y="240" font-family="'Fredoka', sans-serif" font-size="72" font-weight="700" 
        fill="#15181F">VEXALYN</text>
  <text x="620" y="310" font-family="'Fredoka', sans-serif" font-size="72" font-weight="700" 
        fill="#15181F">API</text>
  
  <text x="620" y="380" font-family="'Inter', sans-serif" font-size="32" font-weight="600" 
        fill="#6B7280">Free Anichin Donghua REST API</text>
  
  <!-- Accent Elements -->
  <rect x="620" y="410" width="150" height="8" fill="#FFAB92" rx="4"/>
  <rect x="785" y="410" width="100" height="8" fill="#CBC0F5" rx="4"/>
  <rect x="900" y="410" width="120" height="8" fill="#9BE3BC" rx="4"/>
  
  <!-- Bottom Info -->
  <text x="620" y="500" font-family="'Inter', sans-serif" font-size="24" font-weight="500" 
        fill="#9AA0AC">50 requests/hour • 6 endpoints • Fast & Reliable</text>
</svg>
